<svg width="102" height="36" viewBox="0 0 102 36" fill="none" xmlns="http://www.w3.org/2000/svg">
<path d="M4.4909 17.6411C1.29748 19.5898 3.49295 22.0257 4.98987 23H18.4621C20.458 23 22.4539 22.0257 22.9529 19.1026C23.352 16.7641 21.1233 15.8547 19.959 15.6924C19.959 13.2565 18.4621 11.7949 15.4683 11.3077C13.0732 10.918 11.4765 12.7693 10.9775 13.7436C10.4786 13.0941 8.38287 11.6975 5.9878 13.2565C3.59273 14.8154 4.15825 16.9915 4.4909 17.6411Z" fill="url(#paint0_radial_565_21)"/>
<path d="M10.4788 12.2821C6.88625 10.7231 4.49118 13.2564 3.99219 14.718C1.49732 11.7949 3.99217 6.9231 7.98396 6.9231C10.9778 6.9231 12.4747 9.1966 12.9737 10.3334L10.4788 12.2821Z" fill="#1B1F24"/>
<rect x="7.98352" y="4" width="0.997945" height="1.94872" fill="#1B1F24"/>
<rect width="0.99117" height="1.9625" transform="matrix(0.848566 -0.529089 0.547375 0.836888 3.53333 5.38977)" fill="#1B1F24"/>
<rect width="0.9762" height="1.99229" transform="matrix(0.284009 -0.958822 0.962369 0.271745 1.01575 8.98999)" fill="#1B1F24"/>
<rect width="0.974555" height="1.99551" transform="matrix(-0.0927827 -0.995686 0.996078 -0.0884836 0.0899658 12.9418)" fill="#1B1F24"/>
<rect width="0.981004" height="1.98283" transform="matrix(-0.537617 -0.843189 0.854532 -0.519399 1.45422 16.22)" fill="#1B1F24"/>
<rect width="0.994049" height="1.95667" transform="matrix(0.916372 0.400328 -0.416605 0.909088 11.7931 4.97437)" fill="#1B1F24"/>
<rect width="0.983792" height="1.97729" transform="matrix(0.639205 0.769037 -0.783784 0.621033 14.5236 6.9231)" fill="#1B1F24"/>
<path d="M41.48 15V13.4H44.696C45.2613 13.4 45.6987 13.224 46.008 12.872C46.3173 12.52 46.472 12.1147 46.472 11.656C46.472 11.3467 46.4027 11.0587 46.264 10.792C46.1253 10.5253 45.9227 10.312 45.656 10.152C45.3893 9.992 45.0693 9.912 44.696 9.912H41.48V8.312H44.424C44.904 8.312 45.288 8.18933 45.576 7.944C45.864 7.69867 46.008 7.336 46.008 6.856C46.008 6.376 45.864 6.01333 45.576 5.768C45.288 5.52267 44.904 5.4 44.424 5.4H41.48V3.8H44.472C45.2293 3.8 45.8587 3.93867 46.36 4.216C46.8613 4.49333 47.2347 4.85067 47.48 5.288C47.7253 5.72533 47.848 6.19467 47.848 6.696C47.848 7.28267 47.6827 7.8 47.352 8.248C47.032 8.696 46.5573 9.05867 45.928 9.336L46.072 8.76C46.776 9.048 47.3253 9.45333 47.72 9.976C48.1147 10.4987 48.312 11.112 48.312 11.816C48.312 12.392 48.168 12.92 47.88 13.4C47.6027 13.88 47.1867 14.2693 46.632 14.568C46.088 14.856 45.416 15 44.616 15H41.48ZM40.216 15V3.8H42.056V15H40.216ZM53.0171 15.16C52.2491 15.16 51.5558 14.9893 50.9371 14.648C50.3291 14.296 49.8438 13.816 49.4811 13.208C49.1291 12.6 48.9531 11.9173 48.9531 11.16C48.9531 10.4027 49.1291 9.72533 49.4811 9.128C49.8331 8.52 50.3078 8.04 50.9051 7.688C51.5131 7.336 52.1851 7.16 52.9211 7.16C53.6358 7.16 54.2651 7.32533 54.8091 7.656C55.3638 7.98667 55.7958 8.44 56.1051 9.016C56.4251 9.592 56.5851 10.248 56.5851 10.984C56.5851 11.112 56.5745 11.2453 56.5531 11.384C56.5425 11.512 56.5211 11.656 56.4891 11.816H50.1851V10.376H55.5771L54.9211 10.952C54.8998 10.4827 54.8091 10.088 54.6491 9.768C54.4891 9.448 54.2598 9.20267 53.9611 9.032C53.6731 8.86133 53.3158 8.776 52.8891 8.776C52.4411 8.776 52.0518 8.872 51.7211 9.064C51.3905 9.256 51.1345 9.528 50.9531 9.88C50.7718 10.2213 50.6811 10.632 50.6811 11.112C50.6811 11.592 50.7771 12.0133 50.9691 12.376C51.1611 12.7387 51.4331 13.0213 51.7851 13.224C52.1371 13.416 52.5425 13.512 53.0011 13.512C53.3958 13.512 53.7585 13.4427 54.0891 13.304C54.4305 13.1653 54.7185 12.9627 54.9531 12.696L56.0731 13.832C55.6998 14.2693 55.2465 14.6 54.7131 14.824C54.1798 15.048 53.6145 15.16 53.0171 15.16ZM58.4809 15V4.12H60.2409V15H58.4809ZM56.6409 8.92V7.32H62.0809V8.92H56.6409Z" fill="url(#paint1_radial_565_21)"/>
<path d="M64.0477 15V4.12H65.8077V15H64.0477ZM62.2077 8.92V7.32H67.6477V8.92H62.2077ZM71.7959 15.16C71.0279 15.16 70.3345 14.9893 69.7159 14.648C69.1079 14.296 68.6225 13.816 68.2599 13.208C67.9079 12.6 67.7319 11.9173 67.7319 11.16C67.7319 10.4027 67.9079 9.72533 68.2599 9.128C68.6119 8.52 69.0865 8.04 69.6839 7.688C70.2919 7.336 70.9639 7.16 71.6999 7.16C72.4145 7.16 73.0439 7.32533 73.5879 7.656C74.1425 7.98667 74.5745 8.44 74.8839 9.016C75.2039 9.592 75.3639 10.248 75.3639 10.984C75.3639 11.112 75.3532 11.2453 75.3319 11.384C75.3212 11.512 75.2999 11.656 75.2679 11.816H68.9639V10.376H74.3559L73.6999 10.952C73.6785 10.4827 73.5879 10.088 73.4279 9.768C73.2679 9.448 73.0385 9.20267 72.7399 9.032C72.4519 8.86133 72.0945 8.776 71.6679 8.776C71.2199 8.776 70.8305 8.872 70.4999 9.064C70.1692 9.256 69.9132 9.528 69.7319 9.88C69.5505 10.2213 69.4599 10.632 69.4599 11.112C69.4599 11.592 69.5559 12.0133 69.7479 12.376C69.9399 12.7387 70.2119 13.0213 70.5639 13.224C70.9159 13.416 71.3212 13.512 71.7799 13.512C72.1745 13.512 72.5372 13.4427 72.8679 13.304C73.2092 13.1653 73.4972 12.9627 73.7319 12.696L74.8519 13.832C74.4785 14.2693 74.0252 14.6 73.4919 14.824C72.9585 15.048 72.3932 15.16 71.7959 15.16ZM76.2947 15V7.32H78.0547V15H76.2947ZM78.0547 10.728L77.4467 10.424C77.4467 9.45333 77.6601 8.66933 78.0867 8.072C78.5241 7.464 79.1801 7.16 80.0547 7.16C80.4387 7.16 80.7854 7.22933 81.0947 7.368C81.4041 7.50667 81.6921 7.73067 81.9587 8.04L80.8067 9.224C80.6681 9.07467 80.5134 8.968 80.3427 8.904C80.1721 8.84 79.9747 8.808 79.7507 8.808C79.2601 8.808 78.8547 8.96267 78.5347 9.272C78.2147 9.58133 78.0547 10.0667 78.0547 10.728ZM43.096 33L39.416 21.8H41.224L43.992 30.424H43.512L46.216 21.8H47.496L50.2 30.424H49.72L52.488 21.8H54.296L50.616 33H49.336L46.616 24.392H47.096L44.376 33H43.096ZM57.6578 33.16C56.8898 33.16 56.1964 32.9893 55.5778 32.648C54.9698 32.296 54.4844 31.816 54.1218 31.208C53.7698 30.6 53.5938 29.9173 53.5938 29.16C53.5938 28.4027 53.7698 27.7253 54.1218 27.128C54.4738 26.52 54.9484 26.04 55.5458 25.688C56.1538 25.336 56.8258 25.16 57.5618 25.16C58.2764 25.16 58.9058 25.3253 59.4498 25.656C60.0044 25.9867 60.4364 26.44 60.7458 27.016C61.0658 27.592 61.2258 28.248 61.2258 28.984C61.2258 29.112 61.2151 29.2453 61.1938 29.384C61.1831 29.512 61.1618 29.656 61.1298 29.816H54.8258V28.376H60.2178L59.5618 28.952C59.5404 28.4827 59.4498 28.088 59.2898 27.768C59.1298 27.448 58.9004 27.2027 58.6018 27.032C58.3138 26.8613 57.9564 26.776 57.5298 26.776C57.0818 26.776 56.6924 26.872 56.3618 27.064C56.0311 27.256 55.7751 27.528 55.5938 27.88C55.4124 28.2213 55.3218 28.632 55.3218 29.112C55.3218 29.592 55.4178 30.0133 55.6098 30.376C55.8018 30.7387 56.0738 31.0213 56.4258 31.224C56.7778 31.416 57.1831 31.512 57.6418 31.512C58.0364 31.512 58.3991 31.4427 58.7298 31.304C59.0711 31.1653 59.3591 30.9627 59.5938 30.696L60.7138 31.832C60.3404 32.2693 59.8871 32.6 59.3538 32.824C58.8204 33.048 58.2551 33.16 57.6578 33.16ZM65.3726 33.16C64.6793 33.16 64.05 32.984 63.4846 32.632C62.93 32.28 62.4873 31.8053 62.1566 31.208C61.8366 30.6 61.6766 29.9227 61.6766 29.176C61.6766 28.4187 61.8366 27.7413 62.1566 27.144C62.4873 26.536 62.93 26.056 63.4846 25.704C64.05 25.3413 64.6793 25.16 65.3726 25.16C65.9593 25.16 66.4766 25.288 66.9246 25.544C67.3833 25.7893 67.746 26.1307 68.0126 26.568C68.2793 27.0053 68.4126 27.5013 68.4126 28.056V30.264C68.4126 30.8187 68.2793 31.3147 68.0126 31.752C67.7566 32.1893 67.3993 32.536 66.9406 32.792C66.482 33.0373 65.9593 33.16 65.3726 33.16ZM65.6606 31.496C66.3113 31.496 66.834 31.2773 67.2286 30.84C67.634 30.4027 67.8366 29.8427 67.8366 29.16C67.8366 28.7013 67.746 28.296 67.5646 27.944C67.3833 27.592 67.1273 27.32 66.7966 27.128C66.4766 26.9253 66.098 26.824 65.6606 26.824C65.234 26.824 64.8553 26.9253 64.5246 27.128C64.2046 27.32 63.9486 27.592 63.7566 27.944C63.5753 28.296 63.4846 28.7013 63.4846 29.16C63.4846 29.6187 63.5753 30.024 63.7566 30.376C63.9486 30.728 64.2046 31.0053 64.5246 31.208C64.8553 31.4 65.234 31.496 65.6606 31.496ZM67.7246 33V30.936L68.0286 29.064L67.7246 27.208V25.32H69.4846V33H67.7246ZM72.1259 33V22.12H73.8859V33H72.1259ZM70.2859 26.92V25.32H75.7259V26.92H70.2859ZM81.7888 33V28.568C81.7888 28.056 81.6234 27.6347 81.2928 27.304C80.9728 26.9733 80.5568 26.808 80.0448 26.808C79.7034 26.808 79.3994 26.8827 79.1328 27.032C78.8661 27.1813 78.6581 27.3893 78.5088 27.656C78.3594 27.9227 78.2848 28.2267 78.2848 28.568L77.5968 28.184C77.5968 27.5973 77.7248 27.08 77.9808 26.632C78.2368 26.1733 78.5888 25.816 79.0368 25.56C79.4954 25.2933 80.0074 25.16 80.5728 25.16C81.1488 25.16 81.6608 25.288 82.1088 25.544C82.5568 25.8 82.9088 26.1573 83.1648 26.616C83.4208 27.064 83.5488 27.5867 83.5488 28.184V33H81.7888ZM76.5248 33V21.48H78.2848V33H76.5248ZM88.4252 33.16C87.6572 33.16 86.9639 32.9893 86.3452 32.648C85.7372 32.296 85.2519 31.816 84.8892 31.208C84.5372 30.6 84.3612 29.9173 84.3612 29.16C84.3612 28.4027 84.5372 27.7253 84.8892 27.128C85.2412 26.52 85.7159 26.04 86.3132 25.688C86.9212 25.336 87.5932 25.16 88.3292 25.16C89.0439 25.16 89.6732 25.3253 90.2172 25.656C90.7719 25.9867 91.2039 26.44 91.5132 27.016C91.8332 27.592 91.9932 28.248 91.9932 28.984C91.9932 29.112 91.9826 29.2453 91.9612 29.384C91.9506 29.512 91.9292 29.656 91.8972 29.816H85.5932V28.376H90.9852L90.3292 28.952C90.3079 28.4827 90.2172 28.088 90.0572 27.768C89.8972 27.448 89.6679 27.2027 89.3692 27.032C89.0812 26.8613 88.7239 26.776 88.2972 26.776C87.8492 26.776 87.4599 26.872 87.1292 27.064C86.7986 27.256 86.5426 27.528 86.3612 27.88C86.1799 28.2213 86.0892 28.632 86.0892 29.112C86.0892 29.592 86.1852 30.0133 86.3772 30.376C86.5692 30.7387 86.8412 31.0213 87.1932 31.224C87.5452 31.416 87.9506 31.512 88.4092 31.512C88.8039 31.512 89.1666 31.4427 89.4972 31.304C89.8386 31.1653 90.1266 30.9627 90.3612 30.696L91.4812 31.832C91.1079 32.2693 90.6546 32.6 90.1212 32.824C89.5879 33.048 89.0226 33.16 88.4252 33.16ZM92.9241 33V25.32H94.6841V33H92.9241ZM94.6841 28.728L94.0761 28.424C94.0761 27.4533 94.2895 26.6693 94.7161 26.072C95.1535 25.464 95.8095 25.16 96.6841 25.16C97.0681 25.16 97.4148 25.2293 97.7241 25.368C98.0335 25.5067 98.3215 25.7307 98.5881 26.04L97.4361 27.224C97.2975 27.0747 97.1428 26.968 96.9721 26.904C96.8015 26.84 96.6041 26.808 96.3801 26.808C95.8895 26.808 95.4841 26.9627 95.1641 27.272C94.8441 27.5813 94.6841 28.0667 94.6841 28.728ZM99.335 33.16C98.9937 33.16 98.711 33.048 98.487 32.824C98.2737 32.5893 98.167 32.3067 98.167 31.976C98.167 31.6347 98.2737 31.352 98.487 31.128C98.711 30.904 98.9937 30.792 99.335 30.792C99.6763 30.792 99.9537 30.904 100.167 31.128C100.391 31.352 100.503 31.6347 100.503 31.976C100.503 32.3067 100.391 32.5893 100.167 32.824C99.9537 33.048 99.6763 33.16 99.335 33.16Z" fill="#1B1F24"/>
<defs>
<radialGradient id="paint0_radial_565_21" cx="0" cy="0" r="1" gradientUnits="userSpaceOnUse" gradientTransform="translate(0.441541 9.90881) rotate(36.8306) scale(24.9002 82.5244)">
<stop stop-color="#239C79"/>
<stop offset="1" stop-color="#16A67C"/>
</radialGradient>
<radialGradient id="paint1_radial_565_21" cx="0" cy="0" r="1" gradientUnits="userSpaceOnUse" gradientTransform="translate(31.4674 -4.125) rotate(36.285) scale(77.3062 254.732)">
<stop stop-color="#239C79"/>
<stop offset="1" stop-color="#16A67C"/>
</radialGradient>
</defs>
</svg>
